<?xml version="1.0" encoding="UTF-8"?>
<mxfile host="app.diagrams.net" modified="2020-12-21T11:39:58.781Z" agent="5.0 (X11)" etag="354u150aHxQ24OIlDZfp" version="14.1.1" type="device">
  <diagram id="ZZAaw9F9bndAv2IfB5-a" name="Page-1">
    <mxGraphModel dx="1422" dy="747" grid="1" gridSize="10" guides="1" tooltips="1" connect="1" arrows="1" fold="1" page="1" pageScale="1" pageWidth="2400" pageHeight="2000" math="0" shadow="0">
      <root>
        <mxCell id="0" />
        <mxCell id="1" parent="0" />
        <mxCell id="TE_3qL9c3l0aMvDJT0g_-196" value="&lt;div&gt;Wikibase Data Repsitory&lt;br&gt;&lt;/div&gt;" style="rounded=1;whiteSpace=wrap;html=1;shadow=1;fontSize=15;fillColor=none;strokeColor=#00CC00;strokeWidth=4;fontColor=#00CC00;fontStyle=1;labelBorderColor=none;labelBackgroundColor=none;horizontal=1;verticalAlign=bottom;" parent="1" vertex="1">
          <mxGeometry x="40" y="960" width="2260" height="960" as="geometry" />
        </mxCell>
        <mxCell id="TE_3qL9c3l0aMvDJT0g_-184" value="no data from repo" style="rounded=1;whiteSpace=wrap;html=1;shadow=1;fontSize=15;fillColor=none;strokeColor=#00CC00;strokeWidth=4;fontColor=#00CC00;fontStyle=1;labelBorderColor=none;labelBackgroundColor=none;horizontal=1;verticalAlign=bottom;" parent="1" vertex="1">
          <mxGeometry x="1720" y="480" width="400" height="400" as="geometry" />
        </mxCell>
        <mxCell id="TE_3qL9c3l0aMvDJT0g_-177" value="Query Service" style="rounded=1;whiteSpace=wrap;html=1;shadow=1;fontSize=15;fillColor=none;strokeColor=#00CC00;strokeWidth=4;fontColor=#00CC00;fontStyle=1;labelBorderColor=none;labelBackgroundColor=none;horizontal=1;verticalAlign=bottom;" parent="1" vertex="1">
          <mxGeometry x="1560" y="1240" width="280" height="640" as="geometry" />
        </mxCell>
        <mxCell id="TE_3qL9c3l0aMvDJT0g_-174" value="Events (for Query Service)" style="rounded=1;whiteSpace=wrap;html=1;shadow=1;fontSize=15;fillColor=none;strokeColor=#00CC00;strokeWidth=4;fontColor=#00CC00;fontStyle=1;labelBorderColor=none;labelBackgroundColor=none;horizontal=1;verticalAlign=bottom;" parent="1" vertex="1">
          <mxGeometry x="1920" y="1520" width="320" height="360" as="geometry" />
        </mxCell>
        <mxCell id="TE_3qL9c3l0aMvDJT0g_-146" value="&lt;div&gt;Wikibase Repo (&quot;the database&quot;)&lt;br&gt;&lt;/div&gt;" style="rounded=1;whiteSpace=wrap;html=1;shadow=1;fontSize=15;fillColor=none;strokeColor=#00CC00;strokeWidth=4;fontColor=#00CC00;fontStyle=1;labelBorderColor=none;labelBackgroundColor=none;horizontal=1;verticalAlign=bottom;" parent="1" vertex="1">
          <mxGeometry x="310" y="980" width="990" height="780" as="geometry" />
        </mxCell>
        <mxCell id="TE_3qL9c3l0aMvDJT0g_-149" value="Quality" style="rounded=1;whiteSpace=wrap;html=1;shadow=1;fontSize=15;fillColor=none;strokeColor=#00CC00;strokeWidth=4;fontColor=#00CC00;fontStyle=1;labelBorderColor=none;labelBackgroundColor=none;horizontal=1;verticalAlign=bottom;" parent="1" vertex="1">
          <mxGeometry x="1340" y="1598" width="160" height="282" as="geometry" />
        </mxCell>
        <mxCell id="TE_3qL9c3l0aMvDJT0g_-89" value="&lt;div&gt;Wikipedia / MediaWiki &amp;nbsp;&amp;nbsp;&amp;nbsp;&amp;nbsp;&amp;nbsp;&amp;nbsp;&amp;nbsp;&amp;nbsp;&amp;nbsp;&amp;nbsp;&amp;nbsp;&amp;nbsp;&amp;nbsp;&amp;nbsp;&amp;nbsp;&amp;nbsp;&amp;nbsp;&amp;nbsp;&amp;nbsp;&amp;nbsp;&amp;nbsp;&amp;nbsp;&amp;nbsp;&amp;nbsp;&amp;nbsp;&amp;nbsp;&amp;nbsp;&amp;nbsp;&amp;nbsp;&amp;nbsp;&amp;nbsp;&amp;nbsp;&amp;nbsp;&amp;nbsp;&amp;nbsp;&amp;nbsp;&amp;nbsp;&amp;nbsp;&amp;nbsp;&amp;nbsp;&amp;nbsp;&amp;nbsp;&amp;nbsp;&amp;nbsp;&amp;nbsp;&amp;nbsp;&amp;nbsp;&amp;nbsp;&amp;nbsp;&amp;nbsp;&amp;nbsp;&amp;nbsp;&amp;nbsp;&amp;nbsp;&amp;nbsp;&amp;nbsp;&amp;nbsp;&amp;nbsp;&amp;nbsp;&amp;nbsp;&amp;nbsp;&amp;nbsp;&amp;nbsp;&amp;nbsp;&amp;nbsp;&amp;nbsp;&amp;nbsp;&amp;nbsp;&amp;nbsp;&amp;nbsp;&amp;nbsp;&amp;nbsp;&amp;nbsp;&amp;nbsp;&amp;nbsp;&amp;nbsp;&amp;nbsp;&amp;nbsp;&amp;nbsp;&amp;nbsp;&amp;nbsp;&amp;nbsp;&amp;nbsp;&amp;nbsp;&amp;nbsp;&amp;nbsp; &lt;br&gt;&lt;/div&gt;" style="rounded=1;whiteSpace=wrap;html=1;shadow=1;fontSize=15;fillColor=none;strokeColor=#00CC00;strokeWidth=4;fontColor=#00CC00;fontStyle=1;labelBorderColor=none;labelBackgroundColor=none;horizontal=1;verticalAlign=bottom;" parent="1" vertex="1">
          <mxGeometry x="260" y="160" width="1320" height="720" as="geometry" />
        </mxCell>
        <mxCell id="TE_3qL9c3l0aMvDJT0g_-87" value="WikibaseClient&amp;nbsp;&amp;nbsp;&amp;nbsp;&amp;nbsp;&amp;nbsp;&amp;nbsp;&amp;nbsp;&amp;nbsp;&amp;nbsp;&amp;nbsp;&amp;nbsp;&amp;nbsp;&amp;nbsp;&amp;nbsp;&amp;nbsp;&amp;nbsp;&amp;nbsp;&amp;nbsp;&amp;nbsp;&amp;nbsp;&amp;nbsp;&amp;nbsp;&amp;nbsp;&amp;nbsp;&amp;nbsp;&amp;nbsp;&amp;nbsp;&amp;nbsp;&amp;nbsp;&amp;nbsp;&amp;nbsp;&amp;nbsp;&amp;nbsp;&amp;nbsp;&amp;nbsp;&amp;nbsp;&amp;nbsp;&amp;nbsp;&amp;nbsp;&amp;nbsp;&amp;nbsp;&amp;nbsp;&amp;nbsp;&amp;nbsp;&amp;nbsp;&amp;nbsp;&amp;nbsp;&amp;nbsp;&amp;nbsp;&amp;nbsp;&amp;nbsp;&amp;nbsp;&amp;nbsp;&amp;nbsp;&amp;nbsp;&amp;nbsp;&amp;nbsp;&amp;nbsp;&amp;nbsp;&amp;nbsp;&amp;nbsp;&amp;nbsp;&amp;nbsp;&amp;nbsp;&amp;nbsp;&amp;nbsp;&amp;nbsp;&amp;nbsp;&amp;nbsp;&amp;nbsp;&amp;nbsp;&amp;nbsp;&amp;nbsp;&amp;nbsp;&amp;nbsp;&amp;nbsp;&amp;nbsp;&amp;nbsp;&amp;nbsp;&amp;nbsp;&amp;nbsp;&amp;nbsp;&amp;nbsp;&amp;nbsp;&amp;nbsp;&amp;nbsp;&amp;nbsp;&amp;nbsp;&amp;nbsp;&amp;nbsp;&amp;nbsp;&amp;nbsp;&amp;nbsp;&amp;nbsp;&amp;nbsp;&amp;nbsp;&amp;nbsp;&amp;nbsp;&amp;nbsp; " style="rounded=1;whiteSpace=wrap;html=1;shadow=1;fontSize=15;fillColor=none;strokeColor=#00CC00;strokeWidth=4;fontColor=#00CC00;fontStyle=1;labelBorderColor=none;labelBackgroundColor=none;horizontal=1;verticalAlign=bottom;" parent="1" vertex="1">
          <mxGeometry x="300" y="540" width="1240" height="300" as="geometry" />
        </mxCell>
        <mxCell id="TE_3qL9c3l0aMvDJT0g_-94" value="EntitySchema" style="rounded=1;whiteSpace=wrap;html=1;shadow=1;fontSize=15;fillColor=none;strokeColor=#00CC00;strokeWidth=4;fontColor=#00CC00;fontStyle=1;labelBorderColor=none;labelBackgroundColor=none;horizontal=1;verticalAlign=bottom;" parent="1" vertex="1">
          <mxGeometry x="360" y="1000" width="320" height="160" as="geometry" />
        </mxCell>
        <mxCell id="TE_3qL9c3l0aMvDJT0g_-6" value="&lt;div class=&quot;text-area enable-user-text-select&quot; style=&quot;background-color: transparent; font-size: 36px;&quot;&gt;&lt;span class=&quot;pointer-events&quot; style=&quot;font-size: 36px;&quot;&gt;Data Flow - data flowing out of the repo&lt;/span&gt;&lt;/div&gt;" style="rounded=0;whiteSpace=wrap;html=1;fontSize=36;opacity=50;shadow=0;fillColor=#dae8fc;strokeColor=none;" parent="1" vertex="1">
          <mxGeometry x="600" y="40" width="680" height="80" as="geometry" />
        </mxCell>
        <mxCell id="TE_3qL9c3l0aMvDJT0g_-14" value="Persistence" style="rounded=0;whiteSpace=wrap;html=1;shadow=1;fillColor=#FF33FF;fontSize=10;fontColor=#000000;strokeColor=none;" parent="1" vertex="1">
          <mxGeometry x="80" y="280" width="80" height="80" as="geometry" />
        </mxCell>
        <mxCell id="TE_3qL9c3l0aMvDJT0g_-16" value="&lt;font style=&quot;font-size: 10px&quot;&gt;Document&lt;/font&gt;" style="rounded=0;whiteSpace=wrap;html=1;shadow=1;fontSize=10;fontColor=#000000;strokeColor=none;fillColor=#00CC00;" parent="1" vertex="1">
          <mxGeometry x="80" y="160" width="80" height="80" as="geometry" />
        </mxCell>
        <mxCell id="TE_3qL9c3l0aMvDJT0g_-17" value="&lt;div style=&quot;font-size: 10px&quot;&gt;&lt;font style=&quot;font-size: 10px&quot;&gt;Document Property&lt;/font&gt;&lt;br style=&quot;font-size: 10px&quot;&gt;&lt;/div&gt;" style="rounded=0;whiteSpace=wrap;html=1;shadow=1;fontSize=10;fontColor=#000000;strokeColor=none;fillColor=#009999;" parent="1" vertex="1">
          <mxGeometry x="130" y="110" width="80" height="80" as="geometry" />
        </mxCell>
        <mxCell id="TE_3qL9c3l0aMvDJT0g_-18" value="&lt;div style=&quot;font-size: 10px&quot;&gt;Software&lt;/div&gt;&lt;div style=&quot;font-size: 10px&quot;&gt;Building Block&lt;br style=&quot;font-size: 10px&quot;&gt;&lt;/div&gt;" style="rounded=0;whiteSpace=wrap;html=1;shadow=1;fontSize=10;fontColor=#000000;strokeColor=none;fillColor=#FFFF33;" parent="1" vertex="1">
          <mxGeometry x="80" y="400" width="80" height="80" as="geometry" />
        </mxCell>
        <mxCell id="TE_3qL9c3l0aMvDJT0g_-19" value="&lt;div&gt;Wikibase Common Data Access&lt;/div&gt;&lt;div&gt;(data-access &amp;amp; lib store)&lt;/div&gt;" style="rounded=0;whiteSpace=wrap;html=1;shadow=1;fontSize=10;fontColor=#000000;strokeColor=none;fillColor=#FFFF33;" parent="1" vertex="1">
          <mxGeometry x="780" y="720" width="160" height="80" as="geometry" />
        </mxCell>
        <mxCell id="TE_3qL9c3l0aMvDJT0g_-20" value="&lt;div&gt;Wikitext Parser Functions&lt;/div&gt;" style="rounded=0;whiteSpace=wrap;html=1;shadow=1;fontSize=10;fontColor=#000000;strokeColor=none;fillColor=#FFFF33;" parent="1" vertex="1">
          <mxGeometry x="820" y="560" width="80" height="80" as="geometry" />
        </mxCell>
        <mxCell id="TE_3qL9c3l0aMvDJT0g_-21" value="&lt;div&gt;Wikitext LUA Methods&lt;/div&gt;" style="rounded=0;whiteSpace=wrap;html=1;shadow=1;fontSize=10;fontColor=#000000;strokeColor=none;fillColor=#FFFF33;" parent="1" vertex="1">
          <mxGeometry x="700" y="560" width="80" height="80" as="geometry" />
        </mxCell>
        <mxCell id="TE_3qL9c3l0aMvDJT0g_-22" value="&lt;div&gt;Interwiki&lt;/div&gt;&lt;div&gt;Provider&lt;/div&gt;&lt;div&gt;(hooked in)&lt;/div&gt;" style="rounded=0;whiteSpace=wrap;html=1;shadow=1;fontSize=10;fontColor=#000000;strokeColor=none;fillColor=#FFFF33;" parent="1" vertex="1">
          <mxGeometry x="940" y="560" width="80" height="80" as="geometry" />
        </mxCell>
        <mxCell id="TE_3qL9c3l0aMvDJT0g_-30" value="" style="endArrow=blockThin;html=1;strokeColor=#000000;fontSize=10;fontColor=#000000;entryX=0.5;entryY=1;entryDx=0;entryDy=0;exitX=0.5;exitY=0;exitDx=0;exitDy=0;strokeWidth=2;endFill=1;" parent="1" source="TE_3qL9c3l0aMvDJT0g_-19" target="TE_3qL9c3l0aMvDJT0g_-21" edge="1">
          <mxGeometry width="50" height="50" relative="1" as="geometry">
            <mxPoint x="530" y="550" as="sourcePoint" />
            <mxPoint x="480" y="600" as="targetPoint" />
          </mxGeometry>
        </mxCell>
        <mxCell id="TE_3qL9c3l0aMvDJT0g_-31" value="" style="endArrow=blockThin;html=1;strokeColor=#000000;fontSize=10;fontColor=#000000;entryX=0.5;entryY=1;entryDx=0;entryDy=0;strokeWidth=2;exitX=0.5;exitY=0;exitDx=0;exitDy=0;endFill=1;" parent="1" source="TE_3qL9c3l0aMvDJT0g_-19" target="TE_3qL9c3l0aMvDJT0g_-20" edge="1">
          <mxGeometry width="50" height="50" relative="1" as="geometry">
            <mxPoint x="720" y="740" as="sourcePoint" />
            <mxPoint x="610" y="660" as="targetPoint" />
          </mxGeometry>
        </mxCell>
        <mxCell id="TE_3qL9c3l0aMvDJT0g_-32" value="" style="endArrow=blockThin;html=1;strokeColor=#000000;fontSize=10;fontColor=#000000;entryX=0.5;entryY=1;entryDx=0;entryDy=0;strokeWidth=2;exitX=0.5;exitY=0;exitDx=0;exitDy=0;endFill=1;" parent="1" source="TE_3qL9c3l0aMvDJT0g_-19" target="TE_3qL9c3l0aMvDJT0g_-22" edge="1">
          <mxGeometry width="50" height="50" relative="1" as="geometry">
            <mxPoint x="720" y="720" as="sourcePoint" />
            <mxPoint x="610" y="660" as="targetPoint" />
          </mxGeometry>
        </mxCell>
        <mxCell id="TE_3qL9c3l0aMvDJT0g_-41" value="&lt;div&gt;Mediawiki Page Properties&lt;/div&gt;&lt;div&gt;(page_props)&lt;/div&gt;" style="rounded=0;whiteSpace=wrap;html=1;shadow=1;fontSize=10;fontColor=#000000;strokeColor=none;fillColor=#FF33FF;direction=west;" parent="1" vertex="1">
          <mxGeometry x="460" y="400" width="80" height="80" as="geometry" />
        </mxCell>
        <mxCell id="TE_3qL9c3l0aMvDJT0g_-42" value="&lt;div&gt;Pages with Badges&lt;/div&gt;&lt;div&gt;(Special Page)&lt;/div&gt;" style="rounded=0;whiteSpace=wrap;html=1;shadow=1;fontSize=10;fontColor=#000000;strokeColor=none;direction=west;fillColor=#00CC00;" parent="1" vertex="1">
          <mxGeometry x="460" y="560" width="80" height="80" as="geometry" />
        </mxCell>
        <mxCell id="TE_3qL9c3l0aMvDJT0g_-43" value="&lt;div&gt;Unconnected Pages&lt;/div&gt;&lt;div&gt;(Special Page)&lt;/div&gt;" style="rounded=0;whiteSpace=wrap;html=1;shadow=1;fontSize=10;fontColor=#000000;strokeColor=none;direction=west;fillColor=#00CC00;" parent="1" vertex="1">
          <mxGeometry x="340" y="560" width="80" height="80" as="geometry" />
        </mxCell>
        <mxCell id="TE_3qL9c3l0aMvDJT0g_-44" value="&lt;div&gt;API: Description&lt;/div&gt;" style="rounded=0;whiteSpace=wrap;html=1;shadow=1;fontSize=10;fontColor=#000000;strokeColor=none;direction=west;fillColor=#00CC00;" parent="1" vertex="1">
          <mxGeometry x="580" y="560" width="80" height="80" as="geometry" />
        </mxCell>
        <mxCell id="TE_3qL9c3l0aMvDJT0g_-45" value="" style="endArrow=blockThin;html=1;strokeColor=#000000;fontSize=10;fontColor=#000000;entryX=0.5;entryY=1;entryDx=0;entryDy=0;exitX=0.5;exitY=0;exitDx=0;exitDy=0;strokeWidth=2;endFill=1;" parent="1" source="TE_3qL9c3l0aMvDJT0g_-41" target="TE_3qL9c3l0aMvDJT0g_-43" edge="1">
          <mxGeometry width="50" height="50" relative="1" as="geometry">
            <mxPoint x="360" y="230" as="sourcePoint" />
            <mxPoint x="310" y="280" as="targetPoint" />
          </mxGeometry>
        </mxCell>
        <mxCell id="TE_3qL9c3l0aMvDJT0g_-46" value="" style="endArrow=blockThin;html=1;strokeColor=#000000;fontSize=10;fontColor=#000000;entryX=0.5;entryY=1;entryDx=0;entryDy=0;strokeWidth=2;exitX=0.5;exitY=0;exitDx=0;exitDy=0;endFill=1;" parent="1" source="TE_3qL9c3l0aMvDJT0g_-41" target="TE_3qL9c3l0aMvDJT0g_-42" edge="1">
          <mxGeometry width="50" height="50" relative="1" as="geometry">
            <mxPoint x="550" y="420" as="sourcePoint" />
            <mxPoint x="440" y="340" as="targetPoint" />
          </mxGeometry>
        </mxCell>
        <mxCell id="TE_3qL9c3l0aMvDJT0g_-47" value="" style="endArrow=blockThin;html=1;strokeColor=#000000;fontSize=10;fontColor=#000000;entryX=0.5;entryY=1;entryDx=0;entryDy=0;strokeWidth=2;exitX=0.5;exitY=0;exitDx=0;exitDy=0;endFill=1;" parent="1" source="TE_3qL9c3l0aMvDJT0g_-41" target="TE_3qL9c3l0aMvDJT0g_-44" edge="1">
          <mxGeometry width="50" height="50" relative="1" as="geometry">
            <mxPoint x="550" y="400" as="sourcePoint" />
            <mxPoint x="440" y="340" as="targetPoint" />
          </mxGeometry>
        </mxCell>
        <mxCell id="TE_3qL9c3l0aMvDJT0g_-48" value="&lt;div&gt;API: Page Terms&lt;/div&gt;" style="rounded=0;whiteSpace=wrap;html=1;shadow=1;fontSize=10;fontColor=#000000;strokeColor=none;direction=west;fillColor=#00CC00;" parent="1" vertex="1">
          <mxGeometry x="460" y="720" width="80" height="80" as="geometry" />
        </mxCell>
        <mxCell id="TE_3qL9c3l0aMvDJT0g_-49" value="" style="endArrow=blockThin;html=1;strokeColor=#000000;fontSize=10;fontColor=#000000;entryX=0;entryY=0.5;entryDx=0;entryDy=0;strokeWidth=2;exitX=0;exitY=0.5;exitDx=0;exitDy=0;endFill=1;" parent="1" source="TE_3qL9c3l0aMvDJT0g_-19" target="TE_3qL9c3l0aMvDJT0g_-48" edge="1">
          <mxGeometry width="50" height="50" relative="1" as="geometry">
            <mxPoint x="870" y="730" as="sourcePoint" />
            <mxPoint x="870" y="690" as="targetPoint" />
          </mxGeometry>
        </mxCell>
        <mxCell id="TE_3qL9c3l0aMvDJT0g_-50" value="" style="endArrow=blockThin;html=1;strokeColor=#000000;fontSize=10;fontColor=#000000;entryX=0.5;entryY=0;entryDx=0;entryDy=0;strokeWidth=2;exitX=0;exitY=0.5;exitDx=0;exitDy=0;endFill=1;" parent="1" source="TE_3qL9c3l0aMvDJT0g_-19" target="TE_3qL9c3l0aMvDJT0g_-44" edge="1">
          <mxGeometry width="50" height="50" relative="1" as="geometry">
            <mxPoint x="780" y="720" as="sourcePoint" />
            <mxPoint x="510" y="730" as="targetPoint" />
          </mxGeometry>
        </mxCell>
        <mxCell id="TE_3qL9c3l0aMvDJT0g_-51" value="&lt;div&gt;Scribunto&lt;/div&gt;" style="rounded=0;whiteSpace=wrap;html=1;shadow=1;fontSize=10;fontColor=#000000;strokeColor=none;fillColor=#FFFF33;" parent="1" vertex="1">
          <mxGeometry x="700" y="480" width="80" height="40" as="geometry" />
        </mxCell>
        <mxCell id="TE_3qL9c3l0aMvDJT0g_-52" value="&lt;div&gt;&lt;div&gt;MediaWiki&lt;/div&gt;&lt;div&gt;Pages &amp;amp; Content&lt;/div&gt;&lt;/div&gt;" style="rounded=0;whiteSpace=wrap;html=1;shadow=1;fontSize=10;fontColor=#000000;strokeColor=none;fillColor=#FFFF33;" parent="1" vertex="1">
          <mxGeometry x="820" y="400" width="80" height="80" as="geometry" />
        </mxCell>
        <mxCell id="TE_3qL9c3l0aMvDJT0g_-53" value="&lt;div&gt;Article Wikitext&lt;/div&gt;" style="rounded=0;whiteSpace=wrap;html=1;shadow=1;fontSize=10;fontColor=#000000;strokeColor=none;fillColor=#FF33FF;direction=west;" parent="1" vertex="1">
          <mxGeometry x="940" y="400" width="80" height="80" as="geometry" />
        </mxCell>
        <mxCell id="TE_3qL9c3l0aMvDJT0g_-54" value="" style="endArrow=blockThin;html=1;strokeColor=#000000;fontSize=10;fontColor=#000000;entryX=1;entryY=0.5;entryDx=0;entryDy=0;strokeWidth=2;exitX=1;exitY=0.5;exitDx=0;exitDy=0;endFill=1;" parent="1" source="TE_3qL9c3l0aMvDJT0g_-53" target="TE_3qL9c3l0aMvDJT0g_-52" edge="1">
          <mxGeometry width="50" height="50" relative="1" as="geometry">
            <mxPoint x="890.0000000000005" y="519.9999999999998" as="sourcePoint" />
            <mxPoint x="890.0000000000005" y="439.9999999999998" as="targetPoint" />
          </mxGeometry>
        </mxCell>
        <mxCell id="TE_3qL9c3l0aMvDJT0g_-55" value="" style="endArrow=blockThin;html=1;strokeColor=#000000;fontSize=10;fontColor=#000000;entryX=0;entryY=0.5;entryDx=0;entryDy=0;strokeWidth=2;exitX=0;exitY=0.5;exitDx=0;exitDy=0;endFill=1;" parent="1" source="TE_3qL9c3l0aMvDJT0g_-52" target="TE_3qL9c3l0aMvDJT0g_-41" edge="1">
          <mxGeometry width="50" height="50" relative="1" as="geometry">
            <mxPoint x="949.9999999999995" y="450" as="sourcePoint" />
            <mxPoint x="850.0000000000005" y="450" as="targetPoint" />
          </mxGeometry>
        </mxCell>
        <mxCell id="TE_3qL9c3l0aMvDJT0g_-56" value="" style="endArrow=blockThin;html=1;strokeColor=#000000;fontSize=10;fontColor=#000000;entryX=0.5;entryY=1;entryDx=0;entryDy=0;strokeWidth=2;exitX=0.5;exitY=0;exitDx=0;exitDy=0;endFill=1;" parent="1" source="TE_3qL9c3l0aMvDJT0g_-21" target="TE_3qL9c3l0aMvDJT0g_-51" edge="1">
          <mxGeometry width="50" height="50" relative="1" as="geometry">
            <mxPoint x="770" y="450" as="sourcePoint" />
            <mxPoint x="510" y="450" as="targetPoint" />
          </mxGeometry>
        </mxCell>
        <mxCell id="TE_3qL9c3l0aMvDJT0g_-57" value="" style="endArrow=blockThin;html=1;strokeColor=#000000;fontSize=10;fontColor=#000000;entryX=0.5;entryY=1;entryDx=0;entryDy=0;strokeWidth=2;exitX=1;exitY=0.5;exitDx=0;exitDy=0;endFill=1;" parent="1" source="TE_3qL9c3l0aMvDJT0g_-51" target="TE_3qL9c3l0aMvDJT0g_-52" edge="1">
          <mxGeometry width="50" height="50" relative="1" as="geometry">
            <mxPoint x="750" y="569.9999999999998" as="sourcePoint" />
            <mxPoint x="670" y="550.0000000000002" as="targetPoint" />
          </mxGeometry>
        </mxCell>
        <mxCell id="TE_3qL9c3l0aMvDJT0g_-62" value="" style="endArrow=blockThin;html=1;strokeColor=#000000;fontSize=10;fontColor=#000000;strokeWidth=2;exitX=0.5;exitY=0;exitDx=0;exitDy=0;entryX=0.5;entryY=1;entryDx=0;entryDy=0;endFill=1;" parent="1" source="TE_3qL9c3l0aMvDJT0g_-20" target="TE_3qL9c3l0aMvDJT0g_-52" edge="1">
          <mxGeometry width="50" height="50" relative="1" as="geometry">
            <mxPoint x="750" y="569.9999999999998" as="sourcePoint" />
            <mxPoint x="810" y="510" as="targetPoint" />
          </mxGeometry>
        </mxCell>
        <mxCell id="TE_3qL9c3l0aMvDJT0g_-63" value="" style="endArrow=blockThin;html=1;strokeColor=#000000;fontSize=10;fontColor=#000000;strokeWidth=2;exitX=0.5;exitY=0;exitDx=0;exitDy=0;entryX=0.5;entryY=1;entryDx=0;entryDy=0;endFill=1;" parent="1" source="TE_3qL9c3l0aMvDJT0g_-22" target="TE_3qL9c3l0aMvDJT0g_-52" edge="1">
          <mxGeometry width="50" height="50" relative="1" as="geometry">
            <mxPoint x="870.0000000000005" y="569.9999999999998" as="sourcePoint" />
            <mxPoint x="810" y="490" as="targetPoint" />
          </mxGeometry>
        </mxCell>
        <mxCell id="TE_3qL9c3l0aMvDJT0g_-65" value="&lt;div&gt;Recent Changes&lt;/div&gt;" style="rounded=0;whiteSpace=wrap;html=1;shadow=1;fontSize=10;fontColor=#000000;strokeColor=none;direction=west;fillColor=#00CC00;" parent="1" vertex="1">
          <mxGeometry x="1000" y="240" width="80" height="80" as="geometry" />
        </mxCell>
        <mxCell id="TE_3qL9c3l0aMvDJT0g_-66" value="&lt;div&gt;Watchlists&lt;/div&gt;" style="rounded=0;whiteSpace=wrap;html=1;shadow=1;fontSize=10;fontColor=#000000;strokeColor=none;direction=west;fillColor=#00CC00;" parent="1" vertex="1">
          <mxGeometry x="1120" y="240" width="80" height="80" as="geometry" />
        </mxCell>
        <mxCell id="TE_3qL9c3l0aMvDJT0g_-68" value="" style="endArrow=blockThin;html=1;strokeColor=#000000;fontSize=10;fontColor=#000000;entryX=0.5;entryY=0;entryDx=0;entryDy=0;strokeWidth=2;exitX=0.5;exitY=0;exitDx=0;exitDy=0;endFill=1;" parent="1" source="TE_3qL9c3l0aMvDJT0g_-52" target="TE_3qL9c3l0aMvDJT0g_-64" edge="1">
          <mxGeometry width="50" height="50" relative="1" as="geometry">
            <mxPoint x="859" y="400" as="sourcePoint" />
            <mxPoint x="859.4100000000004" y="359.9999999999998" as="targetPoint" />
          </mxGeometry>
        </mxCell>
        <mxCell id="TE_3qL9c3l0aMvDJT0g_-69" value="" style="group" parent="1" vertex="1" connectable="0">
          <mxGeometry x="820" y="180" width="130" height="140" as="geometry" />
        </mxCell>
        <mxCell id="TE_3qL9c3l0aMvDJT0g_-64" value="&lt;div&gt;Wikipedia&lt;/div&gt;&lt;div&gt;Article HTML&lt;/div&gt;" style="rounded=0;whiteSpace=wrap;html=1;shadow=1;fontSize=10;fontColor=#000000;strokeColor=none;direction=west;fillColor=#00CC00;" parent="TE_3qL9c3l0aMvDJT0g_-69" vertex="1">
          <mxGeometry y="60" width="80" height="80" as="geometry" />
        </mxCell>
        <mxCell id="TE_3qL9c3l0aMvDJT0g_-67" value="&lt;div&gt;Interwiki links&lt;/div&gt;&lt;div&gt;Other projects sidebar&lt;/div&gt;" style="rounded=0;whiteSpace=wrap;html=1;shadow=1;fontSize=10;fontColor=#000000;strokeColor=none;fillColor=#009999;" parent="TE_3qL9c3l0aMvDJT0g_-69" vertex="1">
          <mxGeometry x="50" width="80" height="80" as="geometry" />
        </mxCell>
        <mxCell id="TE_3qL9c3l0aMvDJT0g_-70" value="&lt;div&gt;MediaWiki&lt;/div&gt;&lt;div&gt;RecentChanges&lt;/div&gt;" style="rounded=0;whiteSpace=wrap;html=1;shadow=1;fontSize=10;fontColor=#000000;strokeColor=none;fillColor=#FFFF33;" parent="1" vertex="1">
          <mxGeometry x="1060" y="400" width="80" height="80" as="geometry" />
        </mxCell>
        <mxCell id="TE_3qL9c3l0aMvDJT0g_-71" value="&lt;div&gt;ChangeHandler&lt;/div&gt;" style="rounded=0;whiteSpace=wrap;html=1;shadow=1;fontSize=10;fontColor=#000000;strokeColor=none;fillColor=#FFFF33;" parent="1" vertex="1">
          <mxGeometry x="1060" y="560" width="80" height="80" as="geometry" />
        </mxCell>
        <mxCell id="TE_3qL9c3l0aMvDJT0g_-72" value="" style="endArrow=blockThin;html=1;strokeColor=#000000;fontSize=10;fontColor=#000000;entryX=0.5;entryY=1;entryDx=0;entryDy=0;strokeWidth=2;exitX=0.5;exitY=0;exitDx=0;exitDy=0;endFill=1;" parent="1" source="TE_3qL9c3l0aMvDJT0g_-71" target="TE_3qL9c3l0aMvDJT0g_-70" edge="1">
          <mxGeometry width="50" height="50" relative="1" as="geometry">
            <mxPoint x="1140" y="519.71" as="sourcePoint" />
            <mxPoint x="1100" y="519.71" as="targetPoint" />
          </mxGeometry>
        </mxCell>
        <mxCell id="TE_3qL9c3l0aMvDJT0g_-73" value="" style="endArrow=blockThin;html=1;strokeColor=#000000;fontSize=10;fontColor=#000000;entryX=0.5;entryY=1;entryDx=0;entryDy=0;strokeWidth=2;exitX=0.5;exitY=0;exitDx=0;exitDy=0;endFill=1;" parent="1" source="TE_3qL9c3l0aMvDJT0g_-71" target="TE_3qL9c3l0aMvDJT0g_-52" edge="1">
          <mxGeometry width="50" height="50" relative="1" as="geometry">
            <mxPoint x="1150" y="570" as="sourcePoint" />
            <mxPoint x="1150" y="490" as="targetPoint" />
          </mxGeometry>
        </mxCell>
        <mxCell id="TE_3qL9c3l0aMvDJT0g_-74" value="" style="endArrow=blockThin;html=1;strokeColor=#000000;fontSize=10;fontColor=#000000;entryX=0.5;entryY=0;entryDx=0;entryDy=0;strokeWidth=2;exitX=0.5;exitY=0;exitDx=0;exitDy=0;endFill=1;" parent="1" source="TE_3qL9c3l0aMvDJT0g_-70" target="TE_3qL9c3l0aMvDJT0g_-66" edge="1">
          <mxGeometry width="50" height="50" relative="1" as="geometry">
            <mxPoint x="1060" y="440" as="sourcePoint" />
            <mxPoint x="1180" y="360" as="targetPoint" />
          </mxGeometry>
        </mxCell>
        <mxCell id="TE_3qL9c3l0aMvDJT0g_-75" value="" style="endArrow=blockThin;html=1;strokeColor=#000000;fontSize=10;fontColor=#000000;entryX=0.5;entryY=0;entryDx=0;entryDy=0;strokeWidth=2;exitX=0.5;exitY=0;exitDx=0;exitDy=0;endFill=1;" parent="1" source="TE_3qL9c3l0aMvDJT0g_-70" target="TE_3qL9c3l0aMvDJT0g_-65" edge="1">
          <mxGeometry width="50" height="50" relative="1" as="geometry">
            <mxPoint x="1060" y="440" as="sourcePoint" />
            <mxPoint x="1060" y="360" as="targetPoint" />
          </mxGeometry>
        </mxCell>
        <mxCell id="TE_3qL9c3l0aMvDJT0g_-76" value="&lt;div&gt;Wikibase Client Usage Tracking (in SQL)&lt;/div&gt;" style="rounded=0;whiteSpace=wrap;html=1;shadow=1;fontSize=10;fontColor=#000000;strokeColor=none;fillColor=#FF33FF;direction=west;" parent="1" vertex="1">
          <mxGeometry x="1260" y="560" width="80" height="80" as="geometry" />
        </mxCell>
        <mxCell id="TE_3qL9c3l0aMvDJT0g_-77" value="&lt;div&gt;API: List Entity Usage&lt;/div&gt;" style="rounded=0;whiteSpace=wrap;html=1;shadow=1;fontSize=10;fontColor=#000000;strokeColor=none;direction=west;fillColor=#00CC00;" parent="1" vertex="1">
          <mxGeometry x="1200" y="720" width="80" height="80" as="geometry" />
        </mxCell>
        <mxCell id="TE_3qL9c3l0aMvDJT0g_-78" value="&lt;div&gt;API: Props Entity Usage&lt;/div&gt;" style="rounded=0;whiteSpace=wrap;html=1;shadow=1;fontSize=10;fontColor=#000000;strokeColor=none;direction=west;fillColor=#00CC00;" parent="1" vertex="1">
          <mxGeometry x="1320" y="720" width="80" height="80" as="geometry" />
        </mxCell>
        <mxCell id="TE_3qL9c3l0aMvDJT0g_-79" value="&lt;div&gt;Entity Usage&lt;/div&gt;&lt;div&gt;(Special Page)&lt;/div&gt;" style="rounded=0;whiteSpace=wrap;html=1;shadow=1;fontSize=10;fontColor=#000000;strokeColor=none;direction=west;fillColor=#00CC00;" parent="1" vertex="1">
          <mxGeometry x="1420" y="560" width="80" height="80" as="geometry" />
        </mxCell>
        <mxCell id="TE_3qL9c3l0aMvDJT0g_-80" value="" style="endArrow=blockThin;html=1;strokeColor=#000000;fontSize=10;fontColor=#000000;entryX=0.5;entryY=1;entryDx=0;entryDy=0;strokeWidth=2;exitX=0.5;exitY=0;exitDx=0;exitDy=0;endFill=1;" parent="1" source="TE_3qL9c3l0aMvDJT0g_-76" target="TE_3qL9c3l0aMvDJT0g_-78" edge="1">
          <mxGeometry width="50" height="50" relative="1" as="geometry">
            <mxPoint x="1350" y="780" as="sourcePoint" />
            <mxPoint x="1350" y="700" as="targetPoint" />
          </mxGeometry>
        </mxCell>
        <mxCell id="TE_3qL9c3l0aMvDJT0g_-81" value="" style="endArrow=blockThin;html=1;strokeColor=#000000;fontSize=10;fontColor=#000000;entryX=0.5;entryY=1;entryDx=0;entryDy=0;strokeWidth=2;exitX=0.5;exitY=0;exitDx=0;exitDy=0;endFill=1;" parent="1" source="TE_3qL9c3l0aMvDJT0g_-76" target="TE_3qL9c3l0aMvDJT0g_-77" edge="1">
          <mxGeometry width="50" height="50" relative="1" as="geometry">
            <mxPoint x="1190" y="650" as="sourcePoint" />
            <mxPoint x="1250" y="690" as="targetPoint" />
          </mxGeometry>
        </mxCell>
        <mxCell id="TE_3qL9c3l0aMvDJT0g_-82" value="" style="endArrow=blockThin;html=1;strokeColor=#000000;fontSize=10;fontColor=#000000;entryX=1;entryY=0.5;entryDx=0;entryDy=0;strokeWidth=2;exitX=0;exitY=0.5;exitDx=0;exitDy=0;endFill=1;" parent="1" source="TE_3qL9c3l0aMvDJT0g_-76" target="TE_3qL9c3l0aMvDJT0g_-79" edge="1">
          <mxGeometry width="50" height="50" relative="1" as="geometry">
            <mxPoint x="1190" y="650" as="sourcePoint" />
            <mxPoint x="1130" y="690" as="targetPoint" />
          </mxGeometry>
        </mxCell>
        <mxCell id="TE_3qL9c3l0aMvDJT0g_-83" value="" style="endArrow=blockThin;html=1;strokeColor=#000000;fontSize=10;fontColor=#000000;entryX=1;entryY=0.5;entryDx=0;entryDy=0;strokeWidth=2;exitX=1;exitY=0.5;exitDx=0;exitDy=0;endFill=1;" parent="1" source="TE_3qL9c3l0aMvDJT0g_-76" target="TE_3qL9c3l0aMvDJT0g_-71" edge="1">
          <mxGeometry width="50" height="50" relative="1" as="geometry">
            <mxPoint x="1310" y="610" as="sourcePoint" />
            <mxPoint x="1390" y="610" as="targetPoint" />
          </mxGeometry>
        </mxCell>
        <mxCell id="TE_3qL9c3l0aMvDJT0g_-84" value="&lt;div&gt;ChangeNotifications&lt;/div&gt;" style="rounded=0;whiteSpace=wrap;html=1;shadow=1;fontSize=10;fontColor=#000000;strokeColor=none;fillColor=#FFFF33;" parent="1" vertex="1">
          <mxGeometry x="1040" y="720" width="120" height="80" as="geometry" />
        </mxCell>
        <mxCell id="TE_3qL9c3l0aMvDJT0g_-85" value="" style="endArrow=blockThin;html=1;strokeColor=#000000;fontSize=10;fontColor=#000000;entryX=0.5;entryY=1;entryDx=0;entryDy=0;strokeWidth=2;exitX=0.5;exitY=0;exitDx=0;exitDy=0;endFill=1;" parent="1" source="TE_3qL9c3l0aMvDJT0g_-84" target="TE_3qL9c3l0aMvDJT0g_-71" edge="1">
          <mxGeometry width="50" height="50" relative="1" as="geometry">
            <mxPoint x="1110" y="570" as="sourcePoint" />
            <mxPoint x="1110" y="490" as="targetPoint" />
          </mxGeometry>
        </mxCell>
        <mxCell id="TE_3qL9c3l0aMvDJT0g_-90" value="&lt;div&gt;repo&lt;/div&gt;&lt;div&gt;MySQL DB&lt;/div&gt;" style="rounded=0;whiteSpace=wrap;html=1;shadow=1;fontSize=10;fontColor=#000000;strokeColor=none;fillColor=#FF33FF;direction=west;" parent="1" vertex="1">
          <mxGeometry x="820" y="1040" width="80" height="80" as="geometry" />
        </mxCell>
        <mxCell id="TE_3qL9c3l0aMvDJT0g_-91" value="&lt;div&gt;EntitySchema&lt;/div&gt;" style="rounded=0;whiteSpace=wrap;html=1;shadow=1;fontSize=10;fontColor=#000000;strokeColor=none;fillColor=#FFFF33;" parent="1" vertex="1">
          <mxGeometry x="560" y="1040" width="80" height="80" as="geometry" />
        </mxCell>
        <mxCell id="TE_3qL9c3l0aMvDJT0g_-92" value="&lt;div&gt;EntitySchema text&lt;br&gt;&lt;/div&gt;" style="rounded=0;whiteSpace=wrap;html=1;shadow=1;fontSize=10;fontColor=#000000;strokeColor=none;fillColor=#00CC00;" parent="1" vertex="1">
          <mxGeometry x="400" y="1040" width="80" height="80" as="geometry" />
        </mxCell>
        <mxCell id="TE_3qL9c3l0aMvDJT0g_-93" value="" style="endArrow=blockThin;html=1;strokeColor=#000000;fontSize=10;fontColor=#000000;entryX=1;entryY=0.5;entryDx=0;entryDy=0;strokeWidth=2;exitX=0;exitY=0.5;exitDx=0;exitDy=0;endFill=1;" parent="1" source="TE_3qL9c3l0aMvDJT0g_-91" target="TE_3qL9c3l0aMvDJT0g_-92" edge="1">
          <mxGeometry width="50" height="50" relative="1" as="geometry">
            <mxPoint x="639.9999999999995" y="979.9999999999998" as="sourcePoint" />
            <mxPoint x="400" y="979.9999999999998" as="targetPoint" />
          </mxGeometry>
        </mxCell>
        <mxCell id="TE_3qL9c3l0aMvDJT0g_-96" value="" style="endArrow=blockThin;html=1;strokeColor=#000000;fontSize=10;fontColor=#000000;entryX=1;entryY=0.5;entryDx=0;entryDy=0;strokeWidth=2;exitX=1;exitY=0.5;exitDx=0;exitDy=0;endFill=1;" parent="1" source="TE_3qL9c3l0aMvDJT0g_-90" target="TE_3qL9c3l0aMvDJT0g_-91" edge="1">
          <mxGeometry width="50" height="50" relative="1" as="geometry">
            <mxPoint x="610" y="1090" as="sourcePoint" />
            <mxPoint x="530" y="1090" as="targetPoint" />
          </mxGeometry>
        </mxCell>
        <mxCell id="TE_3qL9c3l0aMvDJT0g_-97" value="&lt;div&gt;Wikibase Common Data Access&lt;/div&gt;&lt;div&gt;(data-access &amp;amp; lib store)&lt;/div&gt;" style="rounded=0;whiteSpace=wrap;html=1;shadow=1;fontSize=10;fontColor=#000000;strokeColor=none;fillColor=#FFFF33;" parent="1" vertex="1">
          <mxGeometry x="780" y="1278" width="160" height="80" as="geometry" />
        </mxCell>
        <mxCell id="TE_3qL9c3l0aMvDJT0g_-98" value="&lt;div&gt;Change dispatch statistics &lt;/div&gt;&lt;div&gt;(Special Page)&lt;/div&gt;" style="rounded=0;whiteSpace=wrap;html=1;shadow=1;fontSize=10;fontColor=#000000;strokeColor=none;direction=west;fillColor=#00CC00;" parent="1" vertex="1">
          <mxGeometry x="660" y="1276" width="80" height="80" as="geometry" />
        </mxCell>
        <mxCell id="TE_3qL9c3l0aMvDJT0g_-99" value="" style="endArrow=blockThin;html=1;strokeColor=#000000;fontSize=10;fontColor=#000000;entryX=0.5;entryY=1;entryDx=0;entryDy=0;strokeWidth=2;exitX=0.5;exitY=0;exitDx=0;exitDy=0;endFill=1;" parent="1" source="TE_3qL9c3l0aMvDJT0g_-90" target="TE_3qL9c3l0aMvDJT0g_-98" edge="1">
          <mxGeometry width="50" height="50" relative="1" as="geometry">
            <mxPoint x="889.9999999999995" y="1130" as="sourcePoint" />
            <mxPoint x="690.0000000000005" y="1130" as="targetPoint" />
          </mxGeometry>
        </mxCell>
        <mxCell id="TE_3qL9c3l0aMvDJT0g_-100" value="Search" style="rounded=1;whiteSpace=wrap;html=1;shadow=1;fontSize=15;fillColor=none;strokeColor=#00CC00;strokeWidth=4;fontColor=#00CC00;fontStyle=1;labelBorderColor=none;labelBackgroundColor=none;horizontal=1;verticalAlign=bottom;" parent="1" vertex="1">
          <mxGeometry x="100" y="1278" width="160" height="320" as="geometry" />
        </mxCell>
        <mxCell id="TE_3qL9c3l0aMvDJT0g_-101" value="&lt;div&gt;Indexer&lt;/div&gt;" style="rounded=0;whiteSpace=wrap;html=1;shadow=1;fontSize=10;fontColor=#000000;strokeColor=none;fillColor=#FFFF33;direction=north;" parent="1" vertex="1">
          <mxGeometry x="140" y="1318" width="80" height="80" as="geometry" />
        </mxCell>
        <mxCell id="TE_3qL9c3l0aMvDJT0g_-102" value="&lt;div&gt;ElasticSearch&lt;/div&gt;" style="rounded=0;whiteSpace=wrap;html=1;shadow=1;fontSize=10;fontColor=#000000;strokeColor=none;fillColor=#FF33FF;direction=north;" parent="1" vertex="1">
          <mxGeometry x="140" y="1482" width="80" height="80" as="geometry" />
        </mxCell>
        <mxCell id="TE_3qL9c3l0aMvDJT0g_-103" value="" style="endArrow=blockThin;html=1;strokeColor=#000000;fontSize=10;fontColor=#000000;entryX=1;entryY=0.5;entryDx=0;entryDy=0;strokeWidth=2;exitX=0;exitY=0.5;exitDx=0;exitDy=0;endFill=1;" parent="1" source="TE_3qL9c3l0aMvDJT0g_-101" target="TE_3qL9c3l0aMvDJT0g_-102" edge="1">
          <mxGeometry width="50" height="50" relative="1" as="geometry">
            <mxPoint x="459.99999999999955" y="1267.9999999999998" as="sourcePoint" />
            <mxPoint x="220" y="1267.9999999999998" as="targetPoint" />
          </mxGeometry>
        </mxCell>
        <mxCell id="TE_3qL9c3l0aMvDJT0g_-104" value="" style="endArrow=blockThin;html=1;strokeColor=#000000;fontSize=10;fontColor=#000000;entryX=1;entryY=0.5;entryDx=0;entryDy=0;strokeWidth=2;exitX=0.5;exitY=0;exitDx=0;exitDy=0;endFill=1;" parent="1" source="TE_3qL9c3l0aMvDJT0g_-90" target="TE_3qL9c3l0aMvDJT0g_-101" edge="1">
          <mxGeometry width="50" height="50" relative="1" as="geometry">
            <mxPoint x="889.9999999999995" y="1130" as="sourcePoint" />
            <mxPoint x="729.9999999999995" y="1290" as="targetPoint" />
          </mxGeometry>
        </mxCell>
        <mxCell id="TE_3qL9c3l0aMvDJT0g_-105" value="&lt;div&gt;Wikidata Entity Search&lt;/div&gt;" style="rounded=0;whiteSpace=wrap;html=1;shadow=1;fontSize=10;fontColor=#000000;strokeColor=none;direction=west;fillColor=#00CC00;" parent="1" vertex="1">
          <mxGeometry x="460" y="1480" width="80" height="80" as="geometry" />
        </mxCell>
        <mxCell id="TE_3qL9c3l0aMvDJT0g_-106" value="" style="endArrow=blockThin;html=1;strokeColor=#000000;fontSize=10;fontColor=#000000;entryX=1;entryY=0.5;entryDx=0;entryDy=0;strokeWidth=2;exitX=0.5;exitY=1;exitDx=0;exitDy=0;endFill=1;" parent="1" source="TE_3qL9c3l0aMvDJT0g_-102" target="TE_3qL9c3l0aMvDJT0g_-105" edge="1">
          <mxGeometry width="50" height="50" relative="1" as="geometry">
            <mxPoint x="250" y="1370" as="sourcePoint" />
            <mxPoint x="250" y="1450" as="targetPoint" />
          </mxGeometry>
        </mxCell>
        <mxCell id="TE_3qL9c3l0aMvDJT0g_-107" value="" style="endArrow=blockThin;html=1;strokeColor=#000000;fontSize=10;fontColor=#000000;entryX=0.5;entryY=1;entryDx=0;entryDy=0;strokeWidth=2;exitX=0.5;exitY=1;exitDx=0;exitDy=0;endFill=1;" parent="1" source="TE_3qL9c3l0aMvDJT0g_-97" target="TE_3qL9c3l0aMvDJT0g_-105" edge="1">
          <mxGeometry width="50" height="50" relative="1" as="geometry">
            <mxPoint x="290" y="1530" as="sourcePoint" />
            <mxPoint x="570" y="1530" as="targetPoint" />
          </mxGeometry>
        </mxCell>
        <mxCell id="TE_3qL9c3l0aMvDJT0g_-108" style="edgeStyle=orthogonalEdgeStyle;rounded=0;jumpStyle=none;orthogonalLoop=1;jettySize=auto;html=1;exitX=0;exitY=0.5;exitDx=0;exitDy=0;endArrow=blockThin;endFill=1;strokeColor=#000000;strokeWidth=1;fontSize=15;fontColor=#00CC00;" parent="1" edge="1">
          <mxGeometry relative="1" as="geometry">
            <mxPoint x="180" y="1598" as="sourcePoint" />
            <mxPoint x="180" y="1598" as="targetPoint" />
          </mxGeometry>
        </mxCell>
        <mxCell id="TE_3qL9c3l0aMvDJT0g_-109" value="&lt;div&gt;* Wikidata APIs&lt;/div&gt;" style="rounded=0;whiteSpace=wrap;html=1;shadow=1;fontSize=10;fontColor=#000000;strokeColor=none;fillColor=#FFFF33;" parent="1" vertex="1">
          <mxGeometry x="580" y="1479" width="80" height="80" as="geometry" />
        </mxCell>
        <mxCell id="TE_3qL9c3l0aMvDJT0g_-110" value="&lt;div&gt;Termbox SSR&lt;/div&gt;" style="rounded=0;whiteSpace=wrap;html=1;shadow=1;fontSize=10;fontColor=#000000;strokeColor=none;fillColor=#FFFF33;" parent="1" vertex="1">
          <mxGeometry x="700" y="1479" width="80" height="80" as="geometry" />
        </mxCell>
        <mxCell id="TE_3qL9c3l0aMvDJT0g_-111" value="&lt;div&gt;EntityView&lt;/div&gt;" style="rounded=0;whiteSpace=wrap;html=1;shadow=1;fontSize=10;fontColor=#000000;strokeColor=none;fillColor=#FFFF33;" parent="1" vertex="1">
          <mxGeometry x="820" y="1479" width="80" height="80" as="geometry" />
        </mxCell>
        <mxCell id="TE_3qL9c3l0aMvDJT0g_-112" value="&lt;div&gt;Special:ListProperties&lt;/div&gt;&lt;div&gt;Special:ItemsWithoutSitelinks&lt;/div&gt;" style="rounded=0;whiteSpace=wrap;html=1;shadow=1;fontSize=10;fontColor=#000000;strokeColor=none;fillColor=#00CC00;" parent="1" vertex="1">
          <mxGeometry x="930" y="1477" width="140" height="80" as="geometry" />
        </mxCell>
        <mxCell id="TE_3qL9c3l0aMvDJT0g_-113" value="" style="endArrow=blockThin;html=1;strokeColor=#000000;fontSize=10;fontColor=#000000;entryX=0.5;entryY=0;entryDx=0;entryDy=0;strokeWidth=2;exitX=0.5;exitY=1;exitDx=0;exitDy=0;endFill=1;" parent="1" source="TE_3qL9c3l0aMvDJT0g_-97" target="TE_3qL9c3l0aMvDJT0g_-109" edge="1">
          <mxGeometry width="50" height="50" relative="1" as="geometry">
            <mxPoint x="929.9999999999995" y="1410" as="sourcePoint" />
            <mxPoint x="370" y="1490" as="targetPoint" />
          </mxGeometry>
        </mxCell>
        <mxCell id="TE_3qL9c3l0aMvDJT0g_-114" value="" style="endArrow=blockThin;html=1;strokeColor=#000000;fontSize=10;fontColor=#000000;entryX=0.5;entryY=0;entryDx=0;entryDy=0;strokeWidth=2;exitX=0.5;exitY=1;exitDx=0;exitDy=0;endFill=1;" parent="1" source="TE_3qL9c3l0aMvDJT0g_-97" target="TE_3qL9c3l0aMvDJT0g_-111" edge="1">
          <mxGeometry width="50" height="50" relative="1" as="geometry">
            <mxPoint x="1049.9999999999995" y="1390" as="sourcePoint" />
            <mxPoint x="650" y="1470" as="targetPoint" />
          </mxGeometry>
        </mxCell>
        <mxCell id="TE_3qL9c3l0aMvDJT0g_-115" value="&lt;div&gt;API&lt;/div&gt;&lt;div&gt;Wikidata Entity json/xml data&lt;/div&gt;" style="rounded=0;whiteSpace=wrap;html=1;shadow=1;fontSize=10;fontColor=#000000;strokeColor=none;direction=west;fillColor=#00CC00;" parent="1" vertex="1">
          <mxGeometry x="580" y="1639" width="80" height="80" as="geometry" />
        </mxCell>
        <mxCell id="TE_3qL9c3l0aMvDJT0g_-116" value="&lt;div&gt;Wikidata Entity HTML&lt;/div&gt;" style="rounded=0;whiteSpace=wrap;html=1;shadow=1;fontSize=10;fontColor=#000000;strokeColor=none;direction=west;fillColor=#00CC00;" parent="1" vertex="1">
          <mxGeometry x="820" y="1639" width="80" height="80" as="geometry" />
        </mxCell>
        <mxCell id="TE_3qL9c3l0aMvDJT0g_-117" value="" style="endArrow=blockThin;html=1;strokeColor=#000000;fontSize=10;fontColor=#000000;entryX=0.5;entryY=1;entryDx=0;entryDy=0;strokeWidth=2;exitX=0.5;exitY=1;exitDx=0;exitDy=0;endFill=1;" parent="1" source="TE_3qL9c3l0aMvDJT0g_-109" target="TE_3qL9c3l0aMvDJT0g_-115" edge="1">
          <mxGeometry width="50" height="50" relative="1" as="geometry">
            <mxPoint x="630" y="1489" as="sourcePoint" />
            <mxPoint x="1029.9999999999995" y="1409" as="targetPoint" />
          </mxGeometry>
        </mxCell>
        <mxCell id="TE_3qL9c3l0aMvDJT0g_-118" value="" style="endArrow=blockThin;html=1;strokeColor=#000000;fontSize=10;fontColor=#000000;entryX=0.5;entryY=1;entryDx=0;entryDy=0;strokeWidth=2;exitX=0.5;exitY=1;exitDx=0;exitDy=0;endFill=1;" parent="1" source="TE_3qL9c3l0aMvDJT0g_-115" target="TE_3qL9c3l0aMvDJT0g_-110" edge="1">
          <mxGeometry width="50" height="50" relative="1" as="geometry">
            <mxPoint x="630" y="1569" as="sourcePoint" />
            <mxPoint x="630" y="1649" as="targetPoint" />
          </mxGeometry>
        </mxCell>
        <mxCell id="TE_3qL9c3l0aMvDJT0g_-119" value="" style="endArrow=blockThin;html=1;strokeColor=#000000;fontSize=10;fontColor=#000000;entryX=0.5;entryY=1;entryDx=0;entryDy=0;strokeWidth=2;exitX=0.5;exitY=1;exitDx=0;exitDy=0;endFill=1;" parent="1" source="TE_3qL9c3l0aMvDJT0g_-111" target="TE_3qL9c3l0aMvDJT0g_-116" edge="1">
          <mxGeometry width="50" height="50" relative="1" as="geometry">
            <mxPoint x="630" y="1569" as="sourcePoint" />
            <mxPoint x="630" y="1649" as="targetPoint" />
          </mxGeometry>
        </mxCell>
        <mxCell id="TE_3qL9c3l0aMvDJT0g_-120" value="" style="endArrow=blockThin;html=1;strokeColor=#000000;fontSize=10;fontColor=#000000;entryX=0;entryY=0.5;entryDx=0;entryDy=0;strokeWidth=2;exitX=1;exitY=0.5;exitDx=0;exitDy=0;endFill=1;" parent="1" source="TE_3qL9c3l0aMvDJT0g_-110" target="TE_3qL9c3l0aMvDJT0g_-111" edge="1">
          <mxGeometry width="50" height="50" relative="1" as="geometry">
            <mxPoint x="869.9999999999995" y="1569" as="sourcePoint" />
            <mxPoint x="869.9999999999995" y="1649" as="targetPoint" />
          </mxGeometry>
        </mxCell>
        <mxCell id="TE_3qL9c3l0aMvDJT0g_-121" value="&lt;div&gt;Federated Properties&lt;/div&gt;" style="rounded=0;whiteSpace=wrap;html=1;shadow=1;fontSize=10;fontColor=#000000;strokeColor=none;fillColor=#FFFF33;" parent="1" vertex="1">
          <mxGeometry x="580" y="1799" width="80" height="80" as="geometry" />
        </mxCell>
        <mxCell id="TE_3qL9c3l0aMvDJT0g_-122" value="" style="endArrow=blockThin;html=1;strokeColor=#000000;fontSize=10;fontColor=#000000;strokeWidth=2;exitX=0.5;exitY=0;exitDx=0;exitDy=0;endFill=1;entryX=0.5;entryY=0;entryDx=0;entryDy=0;" parent="1" source="TE_3qL9c3l0aMvDJT0g_-115" target="TE_3qL9c3l0aMvDJT0g_-121" edge="1">
          <mxGeometry width="50" height="50" relative="1" as="geometry">
            <mxPoint x="670" y="1689" as="sourcePoint" />
            <mxPoint x="620" y="1799" as="targetPoint" />
          </mxGeometry>
        </mxCell>
        <mxCell id="TE_3qL9c3l0aMvDJT0g_-123" value="" style="endArrow=blockThin;html=1;strokeColor=#000000;fontSize=10;fontColor=#000000;entryX=0.5;entryY=0;entryDx=0;entryDy=0;strokeWidth=2;exitX=0.5;exitY=1;exitDx=0;exitDy=0;endFill=1;" parent="1" source="TE_3qL9c3l0aMvDJT0g_-97" target="TE_3qL9c3l0aMvDJT0g_-112" edge="1">
          <mxGeometry width="50" height="50" relative="1" as="geometry">
            <mxPoint x="929.9999999999995" y="1410" as="sourcePoint" />
            <mxPoint x="769.9999999999995" y="1490" as="targetPoint" />
          </mxGeometry>
        </mxCell>
        <mxCell id="TE_3qL9c3l0aMvDJT0g_-124" value="&lt;div&gt;Wikibase&lt;/div&gt;&lt;div&gt;Dumper&lt;/div&gt;" style="rounded=0;whiteSpace=wrap;html=1;shadow=1;fontSize=10;fontColor=#000000;strokeColor=none;fillColor=#FFFF33;" parent="1" vertex="1">
          <mxGeometry x="1040" y="1278" width="80" height="80" as="geometry" />
        </mxCell>
        <mxCell id="TE_3qL9c3l0aMvDJT0g_-125" value="" style="endArrow=blockThin;html=1;strokeColor=#000000;fontSize=10;fontColor=#000000;entryX=0;entryY=0.5;entryDx=0;entryDy=0;strokeWidth=2;exitX=1;exitY=0.5;exitDx=0;exitDy=0;endFill=1;" parent="1" source="TE_3qL9c3l0aMvDJT0g_-97" target="TE_3qL9c3l0aMvDJT0g_-124" edge="1">
          <mxGeometry width="50" height="50" relative="1" as="geometry">
            <mxPoint x="929.9999999999995" y="1368" as="sourcePoint" />
            <mxPoint x="929.9999999999995" y="1448" as="targetPoint" />
          </mxGeometry>
        </mxCell>
        <mxCell id="TE_3qL9c3l0aMvDJT0g_-126" value="&lt;div&gt;NT Dumps&lt;/div&gt;&lt;div&gt;(rdf flavour)&lt;/div&gt;" style="rounded=0;whiteSpace=wrap;html=1;shadow=1;fontSize=10;fontColor=#000000;strokeColor=none;fillColor=#FF33FF;direction=west;" parent="1" vertex="1">
          <mxGeometry x="1360" y="1180" width="80" height="80" as="geometry" />
        </mxCell>
        <mxCell id="TE_3qL9c3l0aMvDJT0g_-127" value="&lt;div&gt;JSON Dumps&lt;/div&gt;" style="rounded=0;whiteSpace=wrap;html=1;shadow=1;fontSize=10;fontColor=#000000;strokeColor=none;fillColor=#FF33FF;direction=west;" parent="1" vertex="1">
          <mxGeometry x="1360" y="1380" width="80" height="80" as="geometry" />
        </mxCell>
        <mxCell id="TE_3qL9c3l0aMvDJT0g_-128" value="&lt;div&gt;TTL Dumps&lt;/div&gt;&lt;div&gt;(rdf flavour)&lt;/div&gt;" style="rounded=0;whiteSpace=wrap;html=1;shadow=1;fontSize=10;fontColor=#000000;strokeColor=none;fillColor=#FF33FF;direction=west;" parent="1" vertex="1">
          <mxGeometry x="1360" y="1278" width="80" height="80" as="geometry" />
        </mxCell>
        <mxCell id="TE_3qL9c3l0aMvDJT0g_-129" value="" style="endArrow=blockThin;html=1;strokeColor=#000000;fontSize=10;fontColor=#000000;entryX=1;entryY=0.5;entryDx=0;entryDy=0;strokeWidth=2;exitX=1;exitY=0.5;exitDx=0;exitDy=0;endFill=1;" parent="1" source="TE_3qL9c3l0aMvDJT0g_-124" target="TE_3qL9c3l0aMvDJT0g_-127" edge="1">
          <mxGeometry width="50" height="50" relative="1" as="geometry">
            <mxPoint x="1009.9999999999995" y="1370" as="sourcePoint" />
            <mxPoint x="1169.9999999999995" y="1370" as="targetPoint" />
          </mxGeometry>
        </mxCell>
        <mxCell id="TE_3qL9c3l0aMvDJT0g_-130" value="" style="endArrow=blockThin;html=1;strokeColor=#000000;fontSize=10;fontColor=#000000;entryX=1;entryY=0.5;entryDx=0;entryDy=0;strokeWidth=2;exitX=1;exitY=0.5;exitDx=0;exitDy=0;endFill=1;" parent="1" source="TE_3qL9c3l0aMvDJT0g_-124" target="TE_3qL9c3l0aMvDJT0g_-126" edge="1">
          <mxGeometry width="50" height="50" relative="1" as="geometry">
            <mxPoint x="1249.9999999999995" y="1370" as="sourcePoint" />
            <mxPoint x="1369.9999999999995" y="1250" as="targetPoint" />
          </mxGeometry>
        </mxCell>
        <mxCell id="TE_3qL9c3l0aMvDJT0g_-131" value="" style="endArrow=blockThin;html=1;strokeColor=#000000;fontSize=10;fontColor=#000000;entryX=1;entryY=0.5;entryDx=0;entryDy=0;strokeWidth=2;exitX=1;exitY=0.5;exitDx=0;exitDy=0;endFill=1;" parent="1" source="TE_3qL9c3l0aMvDJT0g_-124" target="TE_3qL9c3l0aMvDJT0g_-128" edge="1">
          <mxGeometry width="50" height="50" relative="1" as="geometry">
            <mxPoint x="1249.9999999999995" y="1370" as="sourcePoint" />
            <mxPoint x="1369.9999999999995" y="1370" as="targetPoint" />
          </mxGeometry>
        </mxCell>
        <mxCell id="TE_3qL9c3l0aMvDJT0g_-132" value="&lt;div&gt;LinkedData EntityData (Format Provider)&lt;/div&gt;" style="rounded=0;whiteSpace=wrap;html=1;shadow=1;fontSize=10;fontColor=#000000;strokeColor=none;fillColor=#FFFF33;" parent="1" vertex="1">
          <mxGeometry x="1040" y="1120" width="80" height="80" as="geometry" />
        </mxCell>
        <mxCell id="TE_3qL9c3l0aMvDJT0g_-134" value="&lt;div&gt;RDF Entity Data Document&lt;/div&gt;&lt;div&gt;ttl/json/nt/jsonld/etc&lt;/div&gt;&lt;div&gt;(Special Page)&lt;/div&gt;" style="rounded=0;whiteSpace=wrap;html=1;shadow=1;fontSize=10;fontColor=#000000;strokeColor=none;fillColor=#00CC00;" parent="1" vertex="1">
          <mxGeometry x="1200" y="1120" width="80" height="80" as="geometry" />
        </mxCell>
        <mxCell id="TE_3qL9c3l0aMvDJT0g_-135" value="" style="endArrow=blockThin;html=1;strokeColor=#000000;fontSize=10;fontColor=#000000;strokeWidth=2;exitX=1;exitY=0.5;exitDx=0;exitDy=0;endFill=1;" parent="1" source="TE_3qL9c3l0aMvDJT0g_-132" target="TE_3qL9c3l0aMvDJT0g_-134" edge="1">
          <mxGeometry width="50" height="50" relative="1" as="geometry">
            <mxPoint x="1009.9999999999995" y="1330" as="sourcePoint" />
            <mxPoint x="1089.9999999999995" y="1330" as="targetPoint" />
          </mxGeometry>
        </mxCell>
        <mxCell id="TE_3qL9c3l0aMvDJT0g_-136" value="" style="endArrow=blockThin;html=1;strokeColor=#000000;fontSize=10;fontColor=#000000;strokeWidth=2;exitX=1;exitY=0.5;exitDx=0;exitDy=0;endFill=1;entryX=0.5;entryY=1;entryDx=0;entryDy=0;" parent="1" source="TE_3qL9c3l0aMvDJT0g_-97" target="TE_3qL9c3l0aMvDJT0g_-132" edge="1">
          <mxGeometry width="50" height="50" relative="1" as="geometry">
            <mxPoint x="1169.9999999999995" y="1210" as="sourcePoint" />
            <mxPoint x="1209.9999999999995" y="1210" as="targetPoint" />
          </mxGeometry>
        </mxCell>
        <mxCell id="TE_3qL9c3l0aMvDJT0g_-137" value="&lt;div&gt;QualityConstraints&lt;/div&gt;" style="rounded=0;whiteSpace=wrap;html=1;shadow=1;fontSize=10;fontColor=#000000;strokeColor=none;fillColor=#FFFF33;" parent="1" vertex="1">
          <mxGeometry x="1380" y="1638" width="80" height="80" as="geometry" />
        </mxCell>
        <mxCell id="TE_3qL9c3l0aMvDJT0g_-138" value="&lt;div&gt;ConstraintReport&lt;/div&gt;&lt;div&gt;(Special Page)&lt;/div&gt;" style="rounded=0;whiteSpace=wrap;html=1;shadow=1;fontSize=10;fontColor=#000000;strokeColor=none;direction=west;fillColor=#00CC00;" parent="1" vertex="1">
          <mxGeometry x="1380" y="1760" width="80" height="80" as="geometry" />
        </mxCell>
        <mxCell id="TE_3qL9c3l0aMvDJT0g_-140" value="" style="endArrow=blockThin;html=1;strokeColor=#000000;fontSize=10;fontColor=#000000;entryX=0.5;entryY=1;entryDx=0;entryDy=0;strokeWidth=2;exitX=0.5;exitY=1;exitDx=0;exitDy=0;endFill=1;" parent="1" source="TE_3qL9c3l0aMvDJT0g_-137" target="TE_3qL9c3l0aMvDJT0g_-138" edge="1">
          <mxGeometry width="50" height="50" relative="1" as="geometry">
            <mxPoint x="1269.9999999999995" y="1788" as="sourcePoint" />
            <mxPoint x="1269.9999999999995" y="1868" as="targetPoint" />
          </mxGeometry>
        </mxCell>
        <mxCell id="TE_3qL9c3l0aMvDJT0g_-141" value="" style="endArrow=blockThin;html=1;strokeColor=#000000;fontSize=10;fontColor=#000000;strokeWidth=2;endFill=1;exitX=0.5;exitY=1;exitDx=0;exitDy=0;entryX=0.5;entryY=0;entryDx=0;entryDy=0;" parent="1" source="TE_3qL9c3l0aMvDJT0g_-97" target="TE_3qL9c3l0aMvDJT0g_-137" edge="1">
          <mxGeometry width="50" height="50" relative="1" as="geometry">
            <mxPoint x="1000" y="1420" as="sourcePoint" />
            <mxPoint x="929.9999999999995" y="1490" as="targetPoint" />
          </mxGeometry>
        </mxCell>
        <mxCell id="TE_3qL9c3l0aMvDJT0g_-142" value="&lt;div&gt;XML Dumps&lt;/div&gt;" style="rounded=0;whiteSpace=wrap;html=1;shadow=1;fontSize=10;fontColor=#000000;strokeColor=none;fillColor=#FF33FF;direction=west;" parent="1" vertex="1">
          <mxGeometry x="1520" y="1040" width="80" height="80" as="geometry" />
        </mxCell>
        <mxCell id="TE_3qL9c3l0aMvDJT0g_-143" value="&lt;div&gt;Wikibase&lt;/div&gt;&lt;div&gt;Dumper&lt;/div&gt;" style="rounded=0;whiteSpace=wrap;html=1;shadow=1;fontSize=10;fontColor=#000000;strokeColor=none;fillColor=#FFFF33;" parent="1" vertex="1">
          <mxGeometry x="1360" y="1040" width="80" height="80" as="geometry" />
        </mxCell>
        <mxCell id="TE_3qL9c3l0aMvDJT0g_-144" value="" style="endArrow=blockThin;html=1;strokeColor=#000000;fontSize=10;fontColor=#000000;entryX=0;entryY=0.5;entryDx=0;entryDy=0;strokeWidth=2;exitX=0;exitY=0.5;exitDx=0;exitDy=0;endFill=1;" parent="1" source="TE_3qL9c3l0aMvDJT0g_-90" target="TE_3qL9c3l0aMvDJT0g_-143" edge="1">
          <mxGeometry width="50" height="50" relative="1" as="geometry">
            <mxPoint x="1170" y="1290" as="sourcePoint" />
            <mxPoint x="1490" y="1170" as="targetPoint" />
          </mxGeometry>
        </mxCell>
        <mxCell id="TE_3qL9c3l0aMvDJT0g_-145" value="" style="endArrow=blockThin;html=1;strokeColor=#000000;fontSize=10;fontColor=#000000;entryX=1;entryY=0.5;entryDx=0;entryDy=0;strokeWidth=2;exitX=1;exitY=0.5;exitDx=0;exitDy=0;endFill=1;" parent="1" source="TE_3qL9c3l0aMvDJT0g_-143" target="TE_3qL9c3l0aMvDJT0g_-142" edge="1">
          <mxGeometry width="50" height="50" relative="1" as="geometry">
            <mxPoint x="1010" y="1090" as="sourcePoint" />
            <mxPoint x="1410" y="1090" as="targetPoint" />
          </mxGeometry>
        </mxCell>
        <mxCell id="TE_3qL9c3l0aMvDJT0g_-147" value="" style="endArrow=blockThin;html=1;strokeColor=#000000;fontSize=10;fontColor=#000000;entryX=0.5;entryY=1;entryDx=0;entryDy=0;strokeWidth=2;exitX=0.5;exitY=1;exitDx=0;exitDy=0;endFill=1;" parent="1" source="TE_3qL9c3l0aMvDJT0g_-90" target="TE_3qL9c3l0aMvDJT0g_-19" edge="1">
          <mxGeometry width="50" height="50" relative="1" as="geometry">
            <mxPoint x="930" y="1090" as="sourcePoint" />
            <mxPoint x="1290" y="1090" as="targetPoint" />
          </mxGeometry>
        </mxCell>
        <mxCell id="TE_3qL9c3l0aMvDJT0g_-148" value="" style="endArrow=blockThin;html=1;strokeColor=#000000;fontSize=10;fontColor=#000000;entryX=0.5;entryY=1;entryDx=0;entryDy=0;strokeWidth=2;exitX=0.5;exitY=1;exitDx=0;exitDy=0;endFill=1;" parent="1" source="TE_3qL9c3l0aMvDJT0g_-90" target="TE_3qL9c3l0aMvDJT0g_-84" edge="1">
          <mxGeometry width="50" height="50" relative="1" as="geometry">
            <mxPoint x="890" y="1050" as="sourcePoint" />
            <mxPoint x="890" y="810" as="targetPoint" />
          </mxGeometry>
        </mxCell>
        <mxCell id="TE_3qL9c3l0aMvDJT0g_-150" value="&lt;div&gt;Kafka Queue&lt;/div&gt;" style="rounded=0;whiteSpace=wrap;html=1;shadow=1;fontSize=10;fontColor=#000000;strokeColor=none;fillColor=#FF33FF;direction=west;" parent="1" vertex="1">
          <mxGeometry x="1960" y="1720" width="80" height="80" as="geometry" />
        </mxCell>
        <mxCell id="TE_3qL9c3l0aMvDJT0g_-151" value="&lt;div&gt;MediaWiki&lt;/div&gt;&lt;div&gt;Event Stream&lt;/div&gt;" style="rounded=0;whiteSpace=wrap;html=1;shadow=1;fontSize=10;fontColor=#000000;strokeColor=none;direction=east;fillColor=#FFFF33;" parent="1" vertex="1">
          <mxGeometry x="2120" y="1718" width="80" height="80" as="geometry" />
        </mxCell>
        <mxCell id="TE_3qL9c3l0aMvDJT0g_-152" value="&lt;div&gt;MediaWiki&lt;/div&gt;&lt;div&gt;Recent Changes&lt;/div&gt;" style="rounded=0;whiteSpace=wrap;html=1;shadow=1;fontSize=10;fontColor=#000000;strokeColor=none;direction=north;fillColor=#00CC00;" parent="1" vertex="1">
          <mxGeometry x="1960" y="1560" width="80" height="80" as="geometry" />
        </mxCell>
        <mxCell id="TE_3qL9c3l0aMvDJT0g_-153" value="" style="endArrow=blockThin;html=1;strokeColor=#000000;fontSize=10;fontColor=#000000;strokeWidth=2;exitX=0;exitY=0.5;exitDx=0;exitDy=0;endFill=1;entryX=0;entryY=0.5;entryDx=0;entryDy=0;" parent="1" source="TE_3qL9c3l0aMvDJT0g_-151" target="TE_3qL9c3l0aMvDJT0g_-150" edge="1">
          <mxGeometry width="50" height="50" relative="1" as="geometry">
            <mxPoint x="1750" y="1590" as="sourcePoint" />
            <mxPoint x="1790" y="1590" as="targetPoint" />
          </mxGeometry>
        </mxCell>
        <mxCell id="TE_3qL9c3l0aMvDJT0g_-155" value="&lt;div&gt;Updater&lt;/div&gt;&lt;div&gt;(with munging)&lt;/div&gt;" style="rounded=0;whiteSpace=wrap;html=1;shadow=1;fontSize=10;fontColor=#000000;strokeColor=none;direction=west;fillColor=#FFFF33;" parent="1" vertex="1">
          <mxGeometry x="1720" y="1638" width="80" height="80" as="geometry" />
        </mxCell>
        <mxCell id="TE_3qL9c3l0aMvDJT0g_-156" value="&lt;div&gt;Munged Files&lt;br&gt;&lt;/div&gt;" style="rounded=0;whiteSpace=wrap;html=1;shadow=1;fontSize=10;fontColor=#000000;strokeColor=none;fillColor=#FF33FF;direction=north;" parent="1" vertex="1">
          <mxGeometry x="1600" y="1398" width="80" height="80" as="geometry" />
        </mxCell>
        <mxCell id="TE_3qL9c3l0aMvDJT0g_-157" value="&lt;div&gt;Loader&lt;/div&gt;" style="rounded=0;whiteSpace=wrap;html=1;shadow=1;fontSize=10;fontColor=#000000;strokeColor=none;direction=west;fillColor=#FFFF33;" parent="1" vertex="1">
          <mxGeometry x="1600" y="1518" width="80" height="80" as="geometry" />
        </mxCell>
        <mxCell id="TE_3qL9c3l0aMvDJT0g_-158" value="&lt;div&gt;Munger&lt;/div&gt;" style="rounded=0;whiteSpace=wrap;html=1;shadow=1;fontSize=10;fontColor=#000000;strokeColor=none;direction=west;fillColor=#FFFF33;" parent="1" vertex="1">
          <mxGeometry x="1600" y="1278" width="80" height="80" as="geometry" />
        </mxCell>
        <mxCell id="TE_3qL9c3l0aMvDJT0g_-159" value="&lt;div&gt;Blazegraph&lt;/div&gt;&lt;div&gt;(wIth WDQS modifications)&lt;/div&gt;" style="rounded=0;whiteSpace=wrap;html=1;shadow=1;fontSize=10;fontColor=#000000;strokeColor=none;fillColor=#FF33FF;direction=east;" parent="1" vertex="1">
          <mxGeometry x="1600" y="1638" width="80" height="80" as="geometry" />
        </mxCell>
        <mxCell id="TE_3qL9c3l0aMvDJT0g_-160" value="&lt;div&gt;WDQS UI&lt;/div&gt;" style="rounded=0;whiteSpace=wrap;html=1;shadow=1;fontSize=10;fontColor=#000000;strokeColor=none;direction=west;fillColor=#FFFF33;" parent="1" vertex="1">
          <mxGeometry x="1600" y="1762" width="80" height="80" as="geometry" />
        </mxCell>
        <mxCell id="TE_3qL9c3l0aMvDJT0g_-161" value="" style="endArrow=blockThin;html=1;strokeColor=#000000;fontSize=10;fontColor=#000000;strokeWidth=2;exitX=0.5;exitY=0;exitDx=0;exitDy=0;endFill=1;entryX=0;entryY=0.5;entryDx=0;entryDy=0;" parent="1" source="TE_3qL9c3l0aMvDJT0g_-152" target="TE_3qL9c3l0aMvDJT0g_-155" edge="1">
          <mxGeometry width="50" height="50" relative="1" as="geometry">
            <mxPoint x="1650" y="1050" as="sourcePoint" />
            <mxPoint x="2040" y="1120" as="targetPoint" />
            <Array as="points" />
          </mxGeometry>
        </mxCell>
        <mxCell id="TE_3qL9c3l0aMvDJT0g_-162" value="" style="endArrow=blockThin;html=1;strokeColor=#000000;fontSize=10;fontColor=#000000;entryX=0;entryY=0.5;entryDx=0;entryDy=0;strokeWidth=2;exitX=1;exitY=0.5;exitDx=0;exitDy=0;endFill=1;" parent="1" source="TE_3qL9c3l0aMvDJT0g_-150" target="TE_3qL9c3l0aMvDJT0g_-155" edge="1">
          <mxGeometry width="50" height="50" relative="1" as="geometry">
            <mxPoint x="1650" y="1130" as="sourcePoint" />
            <mxPoint x="1890" y="1210" as="targetPoint" />
            <Array as="points" />
          </mxGeometry>
        </mxCell>
        <mxCell id="TE_3qL9c3l0aMvDJT0g_-164" value="" style="endArrow=blockThin;html=1;strokeColor=#000000;fontSize=10;fontColor=#000000;strokeWidth=2;exitX=1;exitY=0.5;exitDx=0;exitDy=0;endFill=1;entryX=0.5;entryY=1;entryDx=0;entryDy=0;" parent="1" source="TE_3qL9c3l0aMvDJT0g_-134" target="TE_3qL9c3l0aMvDJT0g_-155" edge="1">
          <mxGeometry width="50" height="50" relative="1" as="geometry">
            <mxPoint x="1010" y="1370" as="sourcePoint" />
            <mxPoint x="1920" y="1340" as="targetPoint" />
            <Array as="points">
              <mxPoint x="1760" y="1160" />
            </Array>
          </mxGeometry>
        </mxCell>
        <mxCell id="TE_3qL9c3l0aMvDJT0g_-165" value="" style="endArrow=blockThin;html=1;strokeColor=#000000;fontSize=10;fontColor=#000000;strokeWidth=2;endFill=1;entryX=1;entryY=0.5;entryDx=0;entryDy=0;exitX=1;exitY=0.5;exitDx=0;exitDy=0;" parent="1" source="TE_3qL9c3l0aMvDJT0g_-155" target="TE_3qL9c3l0aMvDJT0g_-159" edge="1">
          <mxGeometry width="50" height="50" relative="1" as="geometry">
            <mxPoint x="2100" y="1650" as="sourcePoint" />
            <mxPoint x="2010" y="1248" as="targetPoint" />
            <Array as="points" />
          </mxGeometry>
        </mxCell>
        <mxCell id="TE_3qL9c3l0aMvDJT0g_-166" value="" style="endArrow=blockThin;html=1;strokeColor=#000000;fontSize=10;fontColor=#000000;strokeWidth=2;exitX=0.5;exitY=0;exitDx=0;exitDy=0;endFill=1;entryX=0.5;entryY=0;entryDx=0;entryDy=0;" parent="1" source="TE_3qL9c3l0aMvDJT0g_-157" target="TE_3qL9c3l0aMvDJT0g_-159" edge="1">
          <mxGeometry width="50" height="50" relative="1" as="geometry">
            <mxPoint x="2010" y="1088" as="sourcePoint" />
            <mxPoint x="1890" y="1238" as="targetPoint" />
          </mxGeometry>
        </mxCell>
        <mxCell id="TE_3qL9c3l0aMvDJT0g_-167" value="" style="endArrow=blockThin;html=1;strokeColor=#000000;fontSize=10;fontColor=#000000;strokeWidth=2;exitX=0;exitY=0.5;exitDx=0;exitDy=0;endFill=1;" parent="1" target="TE_3qL9c3l0aMvDJT0g_-157" edge="1">
          <mxGeometry width="50" height="50" relative="1" as="geometry">
            <mxPoint x="1640" y="1518" as="sourcePoint" />
            <mxPoint x="1970" y="1528" as="targetPoint" />
          </mxGeometry>
        </mxCell>
        <mxCell id="TE_3qL9c3l0aMvDJT0g_-168" value="" style="endArrow=blockThin;html=1;strokeColor=#000000;fontSize=10;fontColor=#000000;strokeWidth=2;endFill=1;entryX=1;entryY=0.5;entryDx=0;entryDy=0;exitX=0.5;exitY=0;exitDx=0;exitDy=0;" parent="1" source="TE_3qL9c3l0aMvDJT0g_-158" target="TE_3qL9c3l0aMvDJT0g_-156" edge="1">
          <mxGeometry width="50" height="50" relative="1" as="geometry">
            <mxPoint x="1690" y="1416" as="sourcePoint" />
            <mxPoint x="1930" y="1426" as="targetPoint" />
          </mxGeometry>
        </mxCell>
        <mxCell id="TE_3qL9c3l0aMvDJT0g_-169" value="" style="endArrow=blockThin;html=1;strokeColor=#000000;fontSize=10;fontColor=#000000;strokeWidth=2;exitX=0;exitY=0.5;exitDx=0;exitDy=0;endFill=1;entryX=1;entryY=0.5;entryDx=0;entryDy=0;" parent="1" source="TE_3qL9c3l0aMvDJT0g_-159" target="TE_3qL9c3l0aMvDJT0g_-137" edge="1">
          <mxGeometry width="50" height="50" relative="1" as="geometry">
            <mxPoint x="2130" y="1250" as="sourcePoint" />
            <mxPoint x="2010" y="1210" as="targetPoint" />
          </mxGeometry>
        </mxCell>
        <mxCell id="TE_3qL9c3l0aMvDJT0g_-170" value="" style="endArrow=blockThin;html=1;strokeColor=#000000;fontSize=10;fontColor=#000000;strokeWidth=2;exitX=0;exitY=0.5;exitDx=0;exitDy=0;endFill=1;entryX=1;entryY=0.5;entryDx=0;entryDy=0;" parent="1" source="TE_3qL9c3l0aMvDJT0g_-128" target="TE_3qL9c3l0aMvDJT0g_-158" edge="1">
          <mxGeometry width="50" height="50" relative="1" as="geometry">
            <mxPoint x="1690" y="1306" as="sourcePoint" />
            <mxPoint x="1770" y="1306" as="targetPoint" />
          </mxGeometry>
        </mxCell>
        <mxCell id="TE_3qL9c3l0aMvDJT0g_-171" value="" style="endArrow=blockThin;html=1;strokeColor=#000000;fontSize=10;fontColor=#000000;strokeWidth=2;endFill=1;entryX=0.5;entryY=1;entryDx=0;entryDy=0;" parent="1" source="TE_3qL9c3l0aMvDJT0g_-159" target="TE_3qL9c3l0aMvDJT0g_-160" edge="1">
          <mxGeometry width="50" height="50" relative="1" as="geometry">
            <mxPoint x="1490" y="1690" as="sourcePoint" />
            <mxPoint x="1570" y="1690" as="targetPoint" />
          </mxGeometry>
        </mxCell>
        <mxCell id="TE_3qL9c3l0aMvDJT0g_-172" value="" style="endArrow=blockThin;html=1;strokeColor=#000000;fontSize=10;fontColor=#000000;strokeWidth=2;exitX=0.5;exitY=0;exitDx=0;exitDy=0;endFill=1;entryX=0.5;entryY=0;entryDx=0;entryDy=0;" parent="1" source="TE_3qL9c3l0aMvDJT0g_-90" target="TE_3qL9c3l0aMvDJT0g_-97" edge="1">
          <mxGeometry width="50" height="50" relative="1" as="geometry">
            <mxPoint x="1090" y="1170" as="sourcePoint" />
            <mxPoint x="1010" y="1370" as="targetPoint" />
          </mxGeometry>
        </mxCell>
        <mxCell id="TE_3qL9c3l0aMvDJT0g_-176" value="&lt;div&gt;incremental updates&lt;/div&gt;" style="rounded=0;whiteSpace=wrap;html=1;shadow=1;labelBackgroundColor=none;strokeWidth=4;fontSize=15;strokeColor=none;fillColor=none;fontStyle=1" parent="1" vertex="1">
          <mxGeometry x="2040" y="1650" width="120" height="60" as="geometry" />
        </mxCell>
        <mxCell id="TE_3qL9c3l0aMvDJT0g_-182" value="" style="endArrow=blockThin;html=1;strokeColor=#000000;fontSize=10;fontColor=#000000;strokeWidth=2;endFill=1;entryX=0.5;entryY=1;entryDx=0;entryDy=0;exitX=0;exitY=0.5;exitDx=0;exitDy=0;" parent="1" source="TE_3qL9c3l0aMvDJT0g_-156" target="TE_3qL9c3l0aMvDJT0g_-157" edge="1">
          <mxGeometry width="50" height="50" relative="1" as="geometry">
            <mxPoint x="1530" y="1448" as="sourcePoint" />
            <mxPoint x="1610" y="1448" as="targetPoint" />
          </mxGeometry>
        </mxCell>
        <mxCell id="TE_3qL9c3l0aMvDJT0g_-185" value="babel" style="rounded=0;whiteSpace=wrap;html=1;shadow=1;fontSize=10;fontColor=#000000;strokeColor=none;direction=east;fillColor=#FFFF33;" parent="1" vertex="1">
          <mxGeometry x="1760" y="520" width="80" height="80" as="geometry" />
        </mxCell>
        <mxCell id="TE_3qL9c3l0aMvDJT0g_-186" value="config" style="rounded=0;whiteSpace=wrap;html=1;shadow=1;fontSize=10;strokeColor=#C73500;direction=east;fillColor=#FF9933;" parent="1" vertex="1">
          <mxGeometry x="1760" y="680" width="80" height="80" as="geometry" />
        </mxCell>
        <mxCell id="TE_3qL9c3l0aMvDJT0g_-187" value="&lt;div&gt;My Language Fallback Chain&lt;/div&gt;&lt;div&gt;(Special Page, reads term languages config)&lt;/div&gt;" style="rounded=0;whiteSpace=wrap;html=1;shadow=1;fontSize=10;fontColor=#000000;strokeColor=none;direction=east;fillColor=#00CC00;" parent="1" vertex="1">
          <mxGeometry x="1920" y="600" width="160" height="80" as="geometry" />
        </mxCell>
        <mxCell id="TE_3qL9c3l0aMvDJT0g_-188" value="&lt;div&gt;Special:ListDataTypes&lt;/div&gt;&lt;div&gt;Special:AvailableBadges&lt;/div&gt;" style="rounded=0;whiteSpace=wrap;html=1;shadow=1;fontSize=10;fontColor=#000000;strokeColor=none;direction=east;fillColor=#00CC00;" parent="1" vertex="1">
          <mxGeometry x="1920" y="760" width="160" height="80" as="geometry" />
        </mxCell>
        <mxCell id="TE_3qL9c3l0aMvDJT0g_-189" value="" style="endArrow=blockThin;html=1;strokeColor=#000000;fontSize=10;fontColor=#000000;entryX=0;entryY=0.5;entryDx=0;entryDy=0;strokeWidth=2;endFill=1;exitX=1;exitY=0.5;exitDx=0;exitDy=0;" parent="1" source="TE_3qL9c3l0aMvDJT0g_-185" target="TE_3qL9c3l0aMvDJT0g_-187" edge="1">
          <mxGeometry width="50" height="50" relative="1" as="geometry">
            <mxPoint x="1840" y="560" as="sourcePoint" />
            <mxPoint x="1900" y="640" as="targetPoint" />
          </mxGeometry>
        </mxCell>
        <mxCell id="TE_3qL9c3l0aMvDJT0g_-191" value="" style="endArrow=blockThin;html=1;strokeColor=#000000;fontSize=10;fontColor=#000000;strokeWidth=2;endFill=1;entryX=0;entryY=0.5;entryDx=0;entryDy=0;exitX=1;exitY=0.5;exitDx=0;exitDy=0;" parent="1" source="TE_3qL9c3l0aMvDJT0g_-186" target="TE_3qL9c3l0aMvDJT0g_-187" edge="1">
          <mxGeometry width="50" height="50" relative="1" as="geometry">
            <mxPoint x="1930" y="650" as="sourcePoint" />
            <mxPoint x="1850" y="570" as="targetPoint" />
          </mxGeometry>
        </mxCell>
        <mxCell id="TE_3qL9c3l0aMvDJT0g_-192" value="" style="endArrow=blockThin;html=1;strokeColor=#000000;fontSize=10;fontColor=#000000;strokeWidth=2;endFill=1;entryX=0;entryY=0.5;entryDx=0;entryDy=0;exitX=1;exitY=0.5;exitDx=0;exitDy=0;" parent="1" source="TE_3qL9c3l0aMvDJT0g_-186" target="TE_3qL9c3l0aMvDJT0g_-188" edge="1">
          <mxGeometry width="50" height="50" relative="1" as="geometry">
            <mxPoint x="1850" y="730" as="sourcePoint" />
            <mxPoint x="1930" y="650" as="targetPoint" />
          </mxGeometry>
        </mxCell>
        <mxCell id="TE_3qL9c3l0aMvDJT0g_-193" value="&lt;div&gt;API: Format Reference&lt;/div&gt;" style="rounded=0;whiteSpace=wrap;html=1;shadow=1;fontSize=10;fontColor=#000000;strokeColor=none;direction=west;fillColor=#00CC00;" parent="1" vertex="1">
          <mxGeometry x="1800" y="322" width="80" height="80" as="geometry" />
        </mxCell>
        <mxCell id="TE_3qL9c3l0aMvDJT0g_-195" value="&lt;div&gt;&lt;div&gt;API: Client Info&lt;/div&gt;&lt;/div&gt;" style="rounded=0;whiteSpace=wrap;html=1;shadow=1;fontSize=10;fontColor=#000000;strokeColor=none;direction=west;fillColor=#00CC00;" parent="1" vertex="1">
          <mxGeometry x="1960" y="322" width="80" height="80" as="geometry" />
        </mxCell>
      </root>
    </mxGraphModel>
  </diagram>
</mxfile>
